<svg id="Layer_1" data-name="Layer 1" xmlns="http://www.w3.org/2000/svg" viewBox="0 0 965.93 887.27"><defs><style>.cls-1{fill:#3b97d3;}.cls-2{fill:#95a5a5;}.cls-3,.cls-5{fill:#fff;}.cls-4{fill:#ff5364;}.cls-5,.cls-9{stroke:#bdc3c7;stroke-width:30px;}.cls-5,.cls-7,.cls-9{stroke-miterlimit:10;}.cls-6{fill:#ecf0f1;}.cls-7,.cls-9{fill:none;}.cls-7{stroke:#fff;stroke-linecap:round;stroke-width:35px;}.cls-8{fill:#bdc3c7;}</style></defs><title>LogoBloodManager</title><rect class="cls-1" x="669.4" y="724.66" width="71.6" height="162.61" rx="29.5"/><path class="cls-2" d="M771.17,753.08a248.61,248.61,0,0,1-62.5-7.94v78.67a44.56,44.56,0,0,0,44.55,44.55h42a44.56,44.56,0,0,0,44.55-44.55V743.48A248.21,248.21,0,0,1,771.17,753.08Z" transform="translate(-68.4 -112.15)"/><path class="cls-3" d="M467.19,207" transform="translate(-68.4 -112.15)"/><path class="cls-4" d="M720,117.82C564.89,84.4,470.78,209.44,467.72,213.58c-3.07-4.14-97.18-129.18-252.33-95.76C57.64,151.8,68.56,344.74,68.56,344.74s4.86,230.5,399.08,427.07v.08l.08,0,.08,0v-.08C862,575.24,866.87,344.74,866.87,344.74S877.79,151.8,720,117.82Z" transform="translate(-68.4 -112.15)"/><circle class="cls-5" cx="702.77" cy="392.77" r="248.16"/><path class="cls-6" d="M634.65,615.35a257.94,257.94,0,0,0,25.1,111.35,247,247,0,0,0,111.42,26.38c137.05,0,248.16-111.11,248.16-248.16a247,247,0,0,0-39.17-133.86,258.52,258.52,0,0,0-86.43-14.79C750.65,356.27,634.65,472.26,634.65,615.35Z" transform="translate(-68.4 -112.15)"/><path class="cls-7" d="M134.7,321.08A139.46,139.46,0,0,1,274.25,181.53" transform="translate(-68.4 -112.15)"/><rect class="cls-1" x="691.24" y="143" width="31.55" height="69.96" rx="13"/><rect class="cls-1" x="690.03" y="575" width="31.55" height="69.96" rx="13"/><rect class="cls-1" x="551.95" y="470.96" width="31.55" height="69.96" rx="13" transform="translate(-6.61 961.52) rotate(-90)"/><rect class="cls-1" x="976.67" y="470.96" width="31.55" height="69.96" rx="13" transform="translate(418.11 1386.24) rotate(-90)"/><rect class="cls-4" x="741.19" y="418.52" width="206.79" height="36.9" rx="15.2" transform="translate(-130.01 613.05) rotate(-45)"/><circle class="cls-8" cx="705.8" cy="392.16" r="50.97"/><circle class="cls-9" cx="702.77" cy="392.77" r="248.16"/></svg>